<svg xmlns="http://www.w3.org/2000/svg" width="31" height="30" viewBox="0 0 31 30"><g><g><path fill="#fff" d="M28.69 7.658a15.31 15.31 0 0 0-5.596-5.596C20.738.687 18.166 0 15.376 0s-5.362.687-7.718 2.062a15.307 15.307 0 0 0-5.596 5.596C.687 10.014 0 12.586 0 15.376c0 3.35.978 6.363 2.933 9.039 1.955 2.676 4.481 4.528 7.578 5.556.36.066.627.02.8-.14.174-.16.26-.36.26-.6l-.01-1.082c-.006-.68-.01-1.275-.01-1.781l-.46.08a5.875 5.875 0 0 1-1.111.07 8.466 8.466 0 0 1-1.392-.14 3.11 3.11 0 0 1-1.341-.601 2.54 2.54 0 0 1-.88-1.231l-.2-.46a5.002 5.002 0 0 0-.631-1.022c-.287-.374-.578-.627-.871-.76l-.14-.1a1.47 1.47 0 0 1-.26-.241 1.098 1.098 0 0 1-.18-.28c-.04-.094-.008-.171.1-.231.106-.06.3-.09.58-.09l.4.06c.267.054.597.213.991.48s.717.614.971 1.041c.307.548.677.965 1.111 1.252.434.287.871.43 1.312.43.44 0 .82-.033 1.14-.1.32-.066.621-.167.902-.3.12-.895.447-1.582.98-2.062-.76-.08-1.444-.2-2.052-.36a8.17 8.17 0 0 1-1.881-.782 5.39 5.39 0 0 1-1.612-1.341c-.427-.534-.778-1.235-1.051-2.102-.274-.868-.41-1.87-.41-3.004 0-1.615.527-2.99 1.581-4.124-.494-1.214-.447-2.576.14-4.084.387-.12.961-.03 1.722.27.761.3 1.318.558 1.672.771.354.213.637.394.85.54a14.216 14.216 0 0 1 3.845-.52c1.321 0 2.603.174 3.844.52l.76-.48c.521-.32 1.136-.614 1.843-.88.707-.268 1.248-.341 1.622-.22.6 1.507.654 2.869.16 4.083 1.054 1.135 1.581 2.51 1.581 4.125 0 1.134-.137 2.138-.41 3.013-.273.874-.627 1.574-1.06 2.102a5.597 5.597 0 0 1-1.623 1.331c-.647.36-1.275.62-1.882.781-.607.16-1.291.28-2.052.36.694.601 1.041 1.549 1.041 2.844v4.224c0 .24.083.44.25.6.167.16.43.207.791.14 3.097-1.028 5.623-2.88 7.578-5.556s2.933-5.689 2.933-9.039c0-2.789-.688-5.361-2.062-7.717z"/></g></g></svg>