<svg xmlns="http://www.w3.org/2000/svg" width="32" height="30" viewBox="0 0 32 30"><g><g><path fill="#fff" d="M.4 30h6.729V9.758H.399zM3.809 0C1.506 0 0 1.51 0 3.497 0 5.44 1.463 6.996 3.72 6.996h.045c2.347 0 3.807-1.556 3.807-3.5C7.528 1.51 6.112 0 3.809 0zm19.838 9.282c-3.575 0-5.172 1.968-6.066 3.345v.065h-.044c.012-.02.03-.044.044-.065v-2.87h-6.73c.09 1.901 0 20.243 0 20.243h6.73V18.695c0-.605.046-1.207.224-1.64.486-1.21 1.593-2.462 3.452-2.462 2.436 0 3.41 1.857 3.41 4.577V30h6.728V18.393c0-6.218-3.32-9.11-7.748-9.11z"/></g></g></svg>