<svg xmlns="http://www.w3.org/2000/svg" width="24" height="24" viewBox="0 0 24 24"><g><g><path fill="#010002" d="M24.004 18.94c.051.39-.068.73-.356 1.018l-3.381 3.355c-.153.17-.352.314-.598.433a2.469 2.469 0 0 1-.724.228c-.017 0-.068.005-.153.013a3.463 3.463 0 0 1-.33.013c-.322 0-.843-.055-1.564-.165-.72-.11-1.601-.382-2.644-.814-1.042-.432-2.224-1.08-3.546-1.945-1.322-.864-2.73-2.05-4.22-3.56-1.187-1.169-2.17-2.287-2.95-3.355-.78-1.068-1.407-2.055-1.881-2.962-.475-.907-.83-1.729-1.068-2.466C.352 7.996.191 7.36.106 6.826.02 6.292-.013 5.873.004 5.568c.017-.305.026-.475.026-.509.034-.237.11-.478.228-.724.12-.246.263-.445.433-.598L4.072.356C4.309.119 4.58 0 4.886 0c.22 0 .415.064.584.19.17.128.314.285.433.471l2.72 5.161c.152.271.195.568.127.89a1.585 1.585 0 0 1-.432.813L7.072 8.771a.424.424 0 0 0-.089.165.628.628 0 0 0-.038.191c.068.356.22.763.458 1.22.203.407.516.903.94 1.488.424.585 1.026 1.258 1.805 2.02.763.78 1.44 1.386 2.034 1.819.593.432 1.09.75 1.487.953.399.204.704.326.916.369l.317.063c.034 0 .09-.012.166-.038a.425.425 0 0 0 .165-.089l1.45-1.474a1.558 1.558 0 0 1 1.067-.407c.288 0 .517.05.686.152h.026l4.906 2.899c.357.22.568.5.636.839z"/></g></g></svg>